<?xml version="1.0" encoding="utf-8"?>
<!-- Generator: Adobe Illustrator 25.2.3, SVG Export Plug-In . SVG Version: 6.00 Build 0)  -->
<svg version="1.1" id="Layer_1" focusable="false" xmlns="http://www.w3.org/2000/svg" xmlns:xlink="http://www.w3.org/1999/xlink"
	 x="0px" y="0px" viewBox="0 0 35 35" style="enable-background:new 0 0 35 35;" xml:space="preserve">
<style type="text/css">
	.st0{fill:#FFFFFF;}
</style>
<path class="st0" d="M17.6,8.4c-5,0-9,4-9,9s4,9,9,9s9-4,9-9S22.5,8.4,17.6,8.4z M17.6,23.2c-3.2,0-5.8-2.6-5.8-5.8s2.6-5.8,5.8-5.8
	s5.8,2.6,5.8,5.8S20.8,23.2,17.6,23.2L17.6,23.2z M29,8.1c0,1.2-0.9,2.1-2.1,2.1s-2.1-0.9-2.1-2.1S25.7,6,26.9,6S29,6.9,29,8.1z
	 M34.9,10.2c-0.1-2.8-0.8-5.3-2.8-7.3s-4.5-2.7-7.3-2.8c-2.9-0.2-11.5-0.2-14.4,0C7.5,0.2,5.1,0.8,3,2.8s-2.7,4.5-2.8,7.3
	c-0.2,3-0.2,11.6,0,14.5C0.3,27.4,1,29.9,3,31.9s4.5,2.7,7.3,2.8c2.9,0.2,11.5,0.2,14.4,0c2.8-0.1,5.3-0.8,7.3-2.8s2.7-4.5,2.8-7.3
	C35.1,21.7,35.1,13.1,34.9,10.2L34.9,10.2z M31.2,27.7c-0.6,1.5-1.8,2.7-3.3,3.3c-2.3,0.9-7.8,0.7-10.3,0.7s-8,0.2-10.3-0.7
	c-1.5-0.6-2.7-1.8-3.3-3.3c-1-2.3-0.8-7.8-0.8-10.3S3,9.4,3.9,7.1c0.6-1.5,1.8-2.7,3.3-3.3c2.3-1,7.8-0.7,10.4-0.7s8-0.2,10.3,0.7
	c1.5,0.6,2.7,1.8,3.3,3.3c0.9,2.3,0.7,7.8,0.7,10.3S32.1,25.4,31.2,27.7z"/>
</svg>
